# xmcd
#
# Track frame offsets:
#	150
#	21143
#	38169
#	57800
#	80944
#	97967
#	113686
#	132195
#	150359
#	166255
#	181686
#	199530
#	215692
#	232653
#	246464
#	265960
#	281563
#	298066
#
# Disc length: 4218 seconds
#
# Revision: 2
# Processed by: cddbd v1.5.1PL0 Copyright (c) Steve Scherf et al.
# Submitted via: audiograbber 1.83.01
#
DISCID=f3107812
DTITLE=Various Artist - Top Hits USA RC69
DYEAR=2001
DGENRE=Country
TTITLE0=Garth Brooks - Wrapped Up In You
TTITLE1=Tracy Byrd - Just Let Me Be In Love (Single Version)
TTITLE2=David Ball - Riding With Private Malone (Radio Edit 1)
TTITLE3=Alan Jackson - Where Were You (When The World Stopped Turning)
TTITLE4=Aaron Tippin - Where The Stars and Stripes And The Eagle Fly
TTITLE5=Clay Walker - If You Ever Feel Like Lovin' Me Again
TTITLE6=Chris Cagle - Breathe In, Breathe Out
TTITLE7=Jo Dee Messina w Tim McGraw - Bring On The Rain
TTITLE8=Clint Black w Lisa Hartman Black - Easy For Me To Say (Single Version)
TTITLE9=Gary Allan - Man Of Me
TTITLE10=George Strait - Run
TTITLE11=Steve Holy - Good Morning Beautiful
TTITLE12=Brooks and Dunn - The Long Goodbye
TTITLE13=George Jones and Garth Brooks - Beer Run
TTITLE14=Pat Green - Carry On
TTITLE15=Brian McComas - Night Disappers With You
TTITLE16=Kenny Chesney - The Tin Man (without Kenny Intro)
TTITLE17=Faith Hill - There Will Come A Day
EXTD=YEAR: 2001 ID3G: 2
EXTT0=
EXTT1=
EXTT2=
EXTT3=
EXTT4=
EXTT5=
EXTT6=
EXTT7=
EXTT8=
EXTT9=
EXTT10=
EXTT11=
EXTT12=
EXTT13=
EXTT14=
EXTT15=
EXTT16=
EXTT17=
PLAYORDER=
